<svg width="48" height="48" viewBox="0 0 48 48" fill="none" xmlns="http://www.w3.org/2000/svg">
<rect x="0.5" y="0.5" width="47" height="47" rx="23.5" fill="white" stroke="#E35B5D"/>
<path fill-rule="evenodd" clip-rule="evenodd" d="M24.0001 34.5C24.199 34.5 24.3897 34.421 24.5304 34.2803C24.671 34.1397 24.7501 33.9489 24.7501 33.75V16.0605L29.4691 20.781C29.6099 20.9218 29.8009 21.0009 30.0001 21.0009C30.1992 21.0009 30.3902 20.9218 30.5311 20.781C30.6719 20.6402 30.751 20.4492 30.751 20.25C30.751 20.0508 30.6719 19.8598 30.5311 19.719L24.5311 13.719C24.4614 13.6492 24.3786 13.5937 24.2875 13.5559C24.1964 13.5181 24.0987 13.4987 24.0001 13.4987C23.9014 13.4987 23.8037 13.5181 23.7126 13.5559C23.6215 13.5937 23.5387 13.6492 23.4691 13.719L17.4691 19.719C17.3993 19.7887 17.344 19.8715 17.3063 19.9626C17.2685 20.0537 17.2491 20.1514 17.2491 20.25C17.2491 20.4492 17.3282 20.6402 17.4691 20.781C17.6099 20.9218 17.8009 21.0009 18.0001 21.0009C18.1992 21.0009 18.3902 20.9218 18.5311 20.781L23.2501 16.0605V33.75C23.2501 33.9489 23.3291 34.1397 23.4697 34.2803C23.6104 34.421 23.8011 34.5 24.0001 34.5Z" fill="#E35B5D"/>
</svg>
